<svg width="22" height="20" viewBox="0 0 22 20" fill="none" xmlns="http://www.w3.org/2000/svg">
<path d="M0.365948 4.29324L5.36601 0.292987C5.8543 -0.0976624 6.64533 -0.0976624 7.13362 0.292987C7.6219 0.683636 7.6219 1.31649 7.13362 1.70714L4.26932 3.99947H18.75C19.441 3.99947 20 4.44668 20 4.99953C20 5.55238 19.441 5.99959 18.75 5.99959H4.26932L7.13577 8.29286C7.62405 8.68351 7.62405 9.31636 7.13577 9.70701C6.64787 10.0974 5.85684 10.098 5.36816 9.70701L0.368096 5.70676C-0.12234 5.31518 -0.12234 4.68389 0.365948 4.29324Z" fill="black"/>
<path d="M21.6334 15.7068L16.6333 19.707C16.1446 20.098 15.3535 20.0974 14.8656 19.707C14.3773 19.3164 14.3773 18.6835 14.8656 18.2929L17.7349 16.0005H3.25004C2.559 16.0005 2 15.5536 2 14.9723C2 14.3911 2.559 14.0004 3.25004 14.0004H17.7349L14.8684 11.7071C14.3801 11.3165 14.3801 10.6836 14.8684 10.293C15.3567 9.90234 16.1477 9.90234 16.636 10.293L21.6362 14.2932C22.1217 14.6848 22.1217 15.3161 21.6334 15.7068Z" fill="black"/>
</svg>
